<svg xmlns="http://www.w3.org/2000/svg" width="310.996" height="44.998" viewBox="0 0 310.996 44.998"><path id="logo" d="M23105.184,21082.359l9.889-5.668-9.889-5.664v-4.2l12.574-7.205,2.121,3.635-9.895,5.67,9.895,5.668v4.2l-12.58,7.205Zm-26.932,1.877v-17.418h24.814v17.418Zm4.238-4.2h16.338v-9.006h-16.338Zm-10.588,4.2v-.023l-9.379-10.916v10.939h-4.234v-17.412h4.234l9.379,10.91v-10.91h4.238v17.412Zm250.363-21.914a9.462,9.462,0,1,1,9.461,9.387A9.438,9.438,0,0,1,23322.266,21062.322Zm2.748,0a6.713,6.713,0,1,0,6.713-6.66A6.694,6.694,0,0,0,23325.014,21062.322Zm-171.08,0a9.462,9.462,0,1,1,9.463,9.387A9.439,9.439,0,0,1,23153.934,21062.322Zm2.75,0a6.712,6.712,0,1,0,6.713-6.66A6.69,6.69,0,0,0,23156.684,21062.322Zm187.734,6.262,1.736-2.117c.029.023,3.166,2.51,6.063,2.51,1.951,0,4.033-.609,4.033-2.322,0-1.523-.8-2.068-4.486-3.078-.322-.088-.656-.17-1-.252-2.191-.516-5.5-1.295-5.5-5.211,0-3.1,2.637-5.176,6.559-5.176a10.16,10.16,0,0,1,6.607,2.215l-1.611,2.211a7.425,7.425,0,0,0-5-1.7c-.639,0-3.811.117-3.811,2.445,0,1.605.928,1.977,3.389,2.563.375.088.744.176,1.1.27,3.047.832,6.5,1.781,6.5,5.709,0,3.066-2.66,5.049-6.781,5.049C23348.336,21071.7,23344.578,21068.713,23344.418,21068.584Zm-30.09,2.385h-.006l-9.146-12.621v12.621h-2.748v-17.293h2.748l9.152,12.627v-12.627h2.748v17.293Zm-21.082,0v-17.293h2.75v17.293Zm-14.639,0h-.006l-7.4-17.293h2.988l5.916,13.84,5.92-13.84h2.99l-7.4,17.293Zm-10.041,0-1.789-4.18h-8.266l-1.787,4.18h-2.984l7.4-17.293h3.014l7.4,17.293Zm-8.887-6.9h5.932l-2.967-6.936Zm-15.371,6.9V21056.4h-7.064v-2.727h16.877v2.727h-7.064v14.566Zm-27.73,0v-17.293h2.75v14.568h11.238v2.725Zm-19.252,0v-17.293h13.982v2.727h-11.238v3.486h9.082v2.727h-9.082v5.629h11.238v2.725Zm-15.17,0V21056.4h-7.064v-2.727h16.877v2.727h-7.064v14.566Zm-35.592,0v-8.354h-9.15v8.354h-2.75v-17.293h2.75v6.213h9.15v-6.213h2.75v17.293Zm-88.281-5.949v-19.814H23048v-4.2h28.133v4.2h-13.611v19.814Zm18.93-12.088-6.852,11.789-3.67-2.105,8.424-14.486h4.2l8.424,14.486-3.664,2.105Zm27.971,9.689V21041h4.238v21.619Zm-15.16-5.023-8.424-14.486,3.668-2.1,6.854,11.783,6.859-11.783,3.664,2.1-8.43,14.486Z" transform="translate(-23048.002 -21041.002)" fill="#fff"/></svg>