<?xml version="1.0" encoding="utf-8"?>
<!-- Generator: Adobe Illustrator 27.0.1, SVG Export Plug-In . SVG Version: 6.00 Build 0)  -->
<svg version="1.1" id="レイヤー_1" xmlns="http://www.w3.org/2000/svg" xmlns:xlink="http://www.w3.org/1999/xlink" x="0px"
	 y="0px" width="414.4px" height="94px" viewBox="0 0 414.4 94" style="enable-background:new 0 0 414.4 94;" xml:space="preserve">
<style type="text/css">
	.st0{fill:#00A040;}
</style>
<g>
	<path class="st0" d="M65.7,38.7c5.8-3.2,18.6-10.6,18.9-10.9c11.3-6.8,13-9.4,13.1-15.3C97.8,7.2,93.5,0.2,78.2,0
		C64.5-0.1,50.7,7.8,49.5,17.1c-0.1,0.9-0.3,5.1,2.2,8.5c2.1,2.9,5.5,6,9.1,9C65.2,38.4,65.7,38.7,65.7,38.7"/>
	<path class="st0" d="M70,43.3c2.1-1,8.3-4.6,12.8-7.6c4.5-2.9,18.3-11.7,27.7-11.5c9.5,0.3,17.1,4.7,18.7,11.3
		c1.7,6.9-3.2,14.8-10.9,19.5c-7.6,4.7-16.6,6.4-22.9,5.7c-6.3-0.7-11.4-4.2-15.3-7.6C74.1,47.9,70,43.3,70,43.3"/>
	<path class="st0" d="M64.5,46.8c1,1,6,5.7,8,7.3c2,1.6,10.9,9.8,10.8,16.7c-0.1,6.4-4.2,14.5-16.1,19.6
		c-14.6,6.2-37.7,5.4-40.8-8.2c-1.5-6.5,1.7-13.2,9.6-18.2c1-0.6,20.8-12.7,22.9-13.8C61.1,49.1,64.5,46.8,64.5,46.8"/>
	<path class="st0" d="M0.1,47.5c-1.1-7.2,4.5-17.1,24.6-21c19.3-3.7,25.8,7.3,26.3,9.3c0.5,1.9,3.7,16.3-20.9,22.8
		C20.4,61.2,1.9,58.7,0.1,47.5"/>
</g>
<polygon points="149.7,20.7 164.9,20.7 146.5,77.2 130.5,77.2 "/>
<polygon points="223.1,20.7 172.4,20.7 168,32.3 187.8,32.3 172.7,77.2 187.4,77.2 202.1,32.3 219.5,32.3 "/>
<polygon points="311.1,20.7 293.3,77.2 335,77.2 338.8,65 311.7,65 315.6,53.6 339.9,53.6 343.1,43.3 318.3,43.3 322.1,32.2 
	348.8,32.2 352.3,20.7 "/>
<polygon points="400.1,20.7 388.3,57.1 373.8,20.7 359.5,20.7 341.3,77.2 356,77.2 367.7,39.8 381.9,75.7 382.3,77.2 396.6,77.2 
	414.4,20.7 "/>
<g>
	<path d="M268.2,47.9c-2.8,11.2-12.9,19.3-23.4,19.3c-10.5,0-15.2-7-12.4-18.3c2.2-9,10.4-18.2,22.2-19
		C265.7,29.2,270.6,38,268.2,47.9 M257.4,18.6c-19.8,0.1-34,10.9-39.6,29c-5.7,18.6,5.9,31.4,24.6,31.1c21-0.4,35.6-11.3,40-31.1
		C286.5,29.5,277.3,18.5,257.4,18.6"/>
</g>
</svg>
