<svg id="Group_25463" data-name="Group 25463" xmlns="http://www.w3.org/2000/svg" xmlns:xlink="http://www.w3.org/1999/xlink" width="363.295" height="65.07" viewBox="0 0 363.295 65.07">
  <defs>
    <clipPath id="clip-path">
      <rect id="Rectangle_9022" data-name="Rectangle 9022" width="363.295" height="65.07" fill="none"/>
    </clipPath>
  </defs>
  <g id="Group_25459" data-name="Group 25459" clip-path="url(#clip-path)">
    <path id="Path_54621" data-name="Path 54621" d="M175.879,60.276V27.287l-13.042,33.3a.848.848,0,0,1-.79.539h-3.212a.848.848,0,0,1-.79-.539L145,27.287V60.276a.848.848,0,0,1-.849.849h-7.605a.848.848,0,0,1-.849-.849V14.954a.849.849,0,0,1,.849-.849H148.44a.849.849,0,0,1,.791.54L160.44,43.43l11.21-28.785a.85.85,0,0,1,.791-.54H184.4a.849.849,0,0,1,.849.849V60.276a.848.848,0,0,1-.849.849h-7.676a.848.848,0,0,1-.849-.849" transform="translate(-39.721 -4.129)" fill="#8ec640"/>
    <path id="Path_54622" data-name="Path 54622" d="M213.691,15.576a5.358,5.358,0,1,1,5.358,5.358,5.381,5.381,0,0,1-5.358-5.358m.917,43.563V26.788a.849.849,0,0,1,.849-.849h7.255a.849.849,0,0,1,.849.849V59.139a.848.848,0,0,1-.849.849h-7.255a.848.848,0,0,1-.849-.849" transform="translate(-62.551 -2.991)" fill="#8ec640"/>
    <path id="Path_54623" data-name="Path 54623" d="M251.1,31.249c6.507,0,10.624,2.635,12.98,5.563a.853.853,0,0,1-.08,1.163l-4.609,4.276a.844.844,0,0,1-1.219-.075,8.427,8.427,0,0,0-6.648-2.961c-5.428,0-9.235,3.947-9.235,9.869s3.807,9.94,9.235,9.94a8.568,8.568,0,0,0,6.646-2.976.845.845,0,0,1,1.214-.069L264,60.262a.855.855,0,0,1,.081,1.163c-2.45,3.046-6.805,5.775-13.774,5.551-8.7-.279-16.567-7.605-17.195-16.284-.815-11.275,6.952-19.445,17.988-19.445" transform="translate(-68.22 -9.147)" fill="#8ec640"/>
    <path id="Path_54624" data-name="Path 54624" d="M281.7,65.338V32.987a.849.849,0,0,1,.849-.849h7.255a.849.849,0,0,1,.849.849v3.8a14.756,14.756,0,0,1,9.93-5.39.855.855,0,0,1,.926.85v6.868a.842.842,0,0,1-.919.844,15.32,15.32,0,0,0-1.548-.07c-2.961,0-6.909,1.622-8.389,3.807V65.338a.848.848,0,0,1-.849.849h-7.255a.848.848,0,0,1-.849-.849" transform="translate(-82.46 -9.19)" fill="#8ec640"/>
    <path id="Path_54625" data-name="Path 54625" d="M310.567,49.084c0-9.658,6.767-17.836,17.976-17.836,11.279,0,18.047,8.178,18.047,17.836,0,9.728-6.768,17.906-18.047,17.906-11.209,0-17.976-8.178-17.976-17.906m26.718,0c0-5.288-3.172-9.869-8.741-9.869s-8.671,4.582-8.671,9.869c0,5.357,3.1,9.939,8.671,9.939s8.741-4.582,8.741-9.939" transform="translate(-90.908 -9.147)" fill="#8ec640"/>
    <path id="Path_54626" data-name="Path 54626" d="M368.235,60.276V14.954a.849.849,0,0,1,.849-.849h7.605a.849.849,0,0,1,.849.849V52.313h17.616a.849.849,0,0,1,.849.849v7.115a.848.848,0,0,1-.849.849h-26.07a.848.848,0,0,1-.849-.849" transform="translate(-107.789 -4.129)" fill="#8ec640"/>
    <path id="Path_54627" data-name="Path 54627" d="M434.971,65.645V62.194a15.939,15.939,0,0,1-11.984,5.145c-7.473,0-11-4.089-11-10.715V33.293a.85.85,0,0,1,.849-.849h7.256a.85.85,0,0,1,.849.849V53.1c0,4.724,2.467,6.275,6.274,6.275a10.023,10.023,0,0,0,7.755-3.878v-22.2a.849.849,0,0,1,.849-.849h7.255a.85.85,0,0,1,.849.849V65.645a.849.849,0,0,1-.849.849H435.82a.848.848,0,0,1-.849-.849" transform="translate(-120.596 -9.497)" fill="#8ec640"/>
    <path id="Path_54628" data-name="Path 54628" d="M464.811,60.276V14.954a.848.848,0,0,1,.849-.849h7.255a.849.849,0,0,1,.849.849V31.446a13.114,13.114,0,0,1,10.5-5.216c8.671,0,15.086,6.768,15.086,17.906,0,11.35-6.485,17.836-15.086,17.836a13.355,13.355,0,0,1-10.5-5.147v3.452a.849.849,0,0,1-.849.849H465.66a.848.848,0,0,1-.849-.849M473.764,50.2A9.963,9.963,0,0,0,481.448,54c5.217,0,8.671-3.947,8.671-9.869s-3.454-9.94-8.671-9.94a9.878,9.878,0,0,0-7.684,3.947Z" transform="translate(-136.058 -4.129)" fill="#8ec640"/>
    <path id="Path_54629" data-name="Path 54629" d="M38.156.055A32.447,32.447,0,0,0,13.579,9.19l.039-.013-.136.139a2.51,2.51,0,0,0-.661,1.193c-.627,2.884.648,5.97,2.012,8.26,10.157,15.409,33.193,3.353,43.181,14.965C58.869,24.622,46.8,20.414,40.7,19.769c-8.081-1.189-19.024.872-24.415-6.134C35.033-5.017,67.5,11.061,62.914,37.415c-.095.463-.322,1.249-.458,1.886a3.032,3.032,0,0,0,.016,1.315c.553,2.4,1.441,9.037,1.441,9.037A32.543,32.543,0,0,0,38.156.055" transform="translate(-3.705 0)" fill="#8ec640"/>
    <path id="Path_54630" data-name="Path 54630" d="M30.619,71.4A32.447,32.447,0,0,0,55.2,62.261l-.039.013.136-.139a2.51,2.51,0,0,0,.661-1.193c.627-2.884-.648-5.97-2.012-8.26C43.786,37.273,20.749,49.329,10.761,37.717c-.856,9.112,11.213,13.32,17.316,13.965,8.081,1.189,19.024-.872,24.415,6.134C33.742,76.467,1.278,60.39,5.861,34.036c.095-.463.322-1.249.458-1.886A3.032,3.032,0,0,0,6.3,30.835C5.75,28.437,4.862,21.8,4.862,21.8A32.543,32.543,0,0,0,30.619,71.4" transform="translate(0 -6.381)" fill="#1a8dbb"/>
  </g>
</svg>
