<svg fill="none" height="64" viewBox="0 0 64 64" width="64" xmlns="http://www.w3.org/2000/svg"><circle cx="28" cy="28" fill="#E1192C" r="28"></circle><path d="M25.5055 21.47C27.3951 20.7834 27.6264 19.8454 27.5884 19.3319V17.0625C27.5884 16.2522 27.2476 15.7668 26.9624 15.5012C26.3915 14.9724 25.6706 14.9619 25.4856 14.9719H17.7719C17.5658 14.9636 16.845 14.9707 16.2723 15.5018C15.9865 15.7668 15.6463 16.2522 15.6463 17.0625V19.3512C15.6311 19.7458 15.8021 20.743 17.7169 21.4659C18.83 21.8862 19.1662 22.014 19.1662 23.8865V39.1943C19.1498 39.4857 19.1457 40.4958 19.8372 41.2468C20.1429 41.5787 20.7003 41.9744 21.6173 41.9744C22.5343 41.9744 23.0918 41.5787 23.398 41.2468C24.0902 40.4953 24.0861 39.4851 24.0691 39.2231V23.8865C24.0691 21.9923 24.4304 21.8598 25.5055 21.47ZM23.1135 23.8865L23.1146 39.2518C23.1199 39.3374 23.1527 40.1025 22.6954 40.5979C22.5185 40.7896 22.1889 41.0176 21.6173 41.0176C21.0458 41.0176 20.7162 40.7896 20.5393 40.5979C20.0832 40.103 20.1154 39.3374 20.1206 39.2231V23.8865C20.1206 21.4653 19.4121 21.0842 18.0542 20.5712C16.6184 20.0289 16.5985 19.4526 16.6014 19.3706V17.063C16.6014 16.5981 16.7759 16.339 16.9211 16.2036C17.1922 15.9521 17.5605 15.928 17.7011 15.928C17.7227 15.928 17.7391 15.928 17.7491 15.928H25.5084C25.5886 15.9245 26.0073 15.9193 26.3136 16.203C26.4594 16.3384 26.6333 16.5976 26.6333 17.0625V19.3518C26.6333 19.367 26.6333 19.3811 26.6351 19.3958C26.662 19.6848 26.2966 20.1661 25.1799 20.5718C23.7429 21.093 23.1135 21.5643 23.1135 23.8865Z" fill="white"></path><path d="M28 52C14.7656 52 4 41.2339 4 28.0003C4 14.7667 14.7656 4 28 4C35.7041 4 42.9932 7.73916 47.4975 14.0016C47.7027 14.2865 47.6376 14.6834 47.3532 14.8886C47.0672 15.0944 46.6708 15.0287 46.4656 14.7432C42.2 8.81202 35.2967 5.27042 28 5.27042C15.4662 5.27042 5.26985 15.4667 5.26985 28.0003C5.26985 40.5339 15.4662 50.7302 28 50.7302C40.5338 50.7302 50.7301 40.5333 50.7301 28.0003C50.7301 24.7847 50.0724 21.6757 48.7744 18.7614C48.6313 18.4413 48.7761 18.0655 49.0962 17.9225C49.4163 17.7794 49.7921 17.9248 49.9352 18.2443C51.3053 21.3228 52 24.6053 52 27.9997C52 41.2333 41.2344 52 28 52Z" fill="white"></path><path d="M37.9808 39.7457C38.0528 39.6501 38.1231 39.5516 38.1922 39.4502C38.2367 39.3851 38.2788 39.3171 38.3216 39.2497C39.0746 38.0701 39.6397 36.5476 40.0045 34.6728L40.0063 34.5438C40.3254 32.829 40.4864 30.831 40.4864 28.5551C40.4864 26.7336 40.384 25.0944 40.186 23.6294L40.189 23.4465C39.8042 20.7702 39.0746 18.7142 38.0171 17.2773C37.9392 17.1711 37.8613 17.0668 37.7799 16.9671C37.7155 16.8897 37.6511 16.8135 37.5849 16.7397C37.4573 16.5972 37.3255 16.4629 37.1897 16.3363C37.1657 16.314 37.1434 16.2859 37.1188 16.2642C37.113 16.2583 37.106 16.2548 37.1007 16.249C37.0925 16.2419 37.0849 16.2331 37.0778 16.2267C35.7732 15.0747 34.5166 15.0354 34.112 15.0571C33.7079 15.036 32.4519 15.0747 31.1467 16.2267C31.1385 16.2337 31.1308 16.2425 31.1238 16.249C31.1174 16.2548 31.1109 16.2583 31.1051 16.2642C31.0805 16.2859 31.0582 16.314 31.0342 16.3363C30.8984 16.4629 30.7666 16.5972 30.639 16.7397C30.5734 16.8135 30.5084 16.8903 30.4446 16.9671C30.3632 17.0668 30.2847 17.1711 30.2068 17.2773C29.1493 18.7142 28.4191 20.7702 28.035 23.4465L28.0379 23.6294C27.84 25.0944 27.7375 26.7342 27.7375 28.5551C27.7375 30.8304 27.8979 32.829 28.2177 34.5438L28.22 34.6728C28.5848 36.5476 29.1493 38.0701 29.9023 39.2497C29.9457 39.3171 29.9878 39.3851 30.0317 39.4502C30.1008 39.5516 30.1711 39.6501 30.2431 39.7457C30.3222 39.8512 30.403 39.952 30.4855 40.0511C30.5371 40.1127 30.5892 40.1766 30.6425 40.2358C30.7783 40.387 30.9183 40.5301 31.0629 40.6637C31.0699 40.6696 31.0758 40.6772 31.0817 40.6825C31.0834 40.6837 31.0846 40.6848 31.0858 40.686C31.0998 40.6983 31.1121 40.713 31.1262 40.7259C31.7662 41.2987 32.3968 41.6023 32.9227 41.7653C32.949 41.7735 32.973 41.7794 32.9988 41.7864C33.1007 41.8157 33.1991 41.8421 33.291 41.8621C33.3261 41.8697 33.3572 41.8744 33.3905 41.8802C33.4696 41.8955 33.544 41.9084 33.6131 41.9172C33.6447 41.9207 33.671 41.9236 33.6997 41.9265C33.7671 41.933 33.8285 41.9389 33.8848 41.9418C33.9012 41.9418 33.9146 41.943 33.9304 41.943C33.9615 41.9441 33.9989 41.9465 34.0253 41.9465C34.0587 41.9465 34.0862 41.9465 34.112 41.9447C34.1383 41.9459 34.1652 41.9465 34.1986 41.9465C34.225 41.9465 34.2624 41.9441 34.2941 41.943C34.3093 41.943 34.3228 41.943 34.3397 41.9418C34.3948 41.9389 34.4569 41.933 34.5242 41.9265C34.5535 41.9236 34.5798 41.9207 34.6109 41.9172C34.68 41.9084 34.7555 41.8955 34.8334 41.8802C34.8673 41.8738 34.8984 41.8691 34.9335 41.8621C35.0254 41.8427 35.1238 41.8157 35.2251 41.7864C35.2515 41.7788 35.2755 41.7729 35.3018 41.7653C35.8271 41.6023 36.4577 41.2987 37.0978 40.7259C37.1118 40.713 37.1241 40.6983 37.1382 40.686C37.1393 40.6848 37.1411 40.6837 37.1423 40.6825C37.1487 40.6766 37.1551 40.669 37.161 40.6637C37.3062 40.5301 37.4462 40.3864 37.5814 40.2358C37.6347 40.1766 37.6868 40.1127 37.7384 40.0511C37.8215 39.952 37.9017 39.8512 37.9808 39.7457ZM37.0673 39.3341C36.9924 39.4267 36.9174 39.5194 36.8395 39.6061C36.7341 39.721 36.6258 39.8283 36.5151 39.9309C36.504 39.9409 36.4946 39.9514 36.4841 39.9614C35.9354 40.4586 35.4072 40.7124 34.9897 40.8408C34.985 40.842 34.9804 40.8443 34.9763 40.8455C34.9546 40.8519 34.937 40.8549 34.9159 40.8613C34.6366 40.9387 34.4071 40.9645 34.2589 40.9692C34.2121 40.9692 34.1752 40.9692 34.1506 40.968C34.1377 40.968 34.1248 40.968 34.1114 40.968C34.0979 40.9668 34.0856 40.9668 34.0721 40.968C34.0487 40.9692 34.0112 40.9698 33.9638 40.9692C33.8145 40.9645 33.5844 40.9387 33.305 40.8601C33.2846 40.8549 33.2676 40.8519 33.2471 40.8455C33.2418 40.8443 33.236 40.8414 33.2307 40.8396C32.8126 40.7112 32.2856 40.458 31.7392 39.9614C31.7281 39.9514 31.7188 39.9409 31.7082 39.9309C31.597 39.8283 31.4886 39.7205 31.3838 39.6061C31.3053 39.52 31.2304 39.4267 31.1554 39.3341C31.1221 39.2931 31.0875 39.255 31.0553 39.2133C29.5 37.179 28.713 33.6022 28.713 28.5551C28.713 23.0384 29.6218 19.267 31.416 17.3277C31.4418 17.3001 31.4693 17.2761 31.4962 17.2485C31.587 17.1547 31.6783 17.0627 31.7732 16.9777C32.035 16.7455 32.2914 16.5696 32.5321 16.4372C32.5626 16.4207 32.5918 16.4073 32.6217 16.3914C32.7066 16.3475 32.7909 16.3076 32.8717 16.2736C32.9186 16.2542 32.9631 16.2372 33.0088 16.2208C33.0644 16.2003 33.1206 16.1798 33.1733 16.164C33.2307 16.1464 33.2875 16.13 33.3414 16.1165C33.3724 16.1083 33.4023 16.1012 33.4309 16.0954C33.4959 16.0813 33.5592 16.069 33.6166 16.0602C33.6271 16.059 33.6365 16.0573 33.6464 16.0561C33.712 16.0467 33.7735 16.0403 33.8285 16.0367C33.8332 16.0367 33.8373 16.0367 33.842 16.0367C33.8894 16.0338 33.931 16.0326 33.9691 16.032C34.0013 16.032 34.0329 16.0332 34.0516 16.0344C34.0622 16.0344 34.0997 16.0356 34.1096 16.0356C34.1096 16.0356 34.1114 16.0356 34.112 16.0356C34.1125 16.0356 34.1137 16.0356 34.1143 16.0356C34.1248 16.0356 34.1629 16.0356 34.1723 16.0344C34.1904 16.0332 34.2232 16.0326 34.2554 16.032C34.2935 16.032 34.3351 16.0338 34.3825 16.0367C34.3872 16.0367 34.3913 16.0367 34.396 16.0367C34.4498 16.0408 34.5125 16.0473 34.5781 16.0561C34.588 16.0573 34.5974 16.059 34.6073 16.0602C34.6653 16.069 34.7286 16.0813 34.793 16.0954C34.8222 16.1018 34.8521 16.1088 34.8826 16.1165C34.9364 16.13 34.9932 16.1458 35.0512 16.164C35.1039 16.1804 35.1595 16.2003 35.2158 16.2208C35.2608 16.2372 35.3059 16.2542 35.3528 16.2736C35.433 16.3076 35.5167 16.348 35.6022 16.3914C35.6321 16.4073 35.6614 16.4202 35.6918 16.4372C35.9331 16.5696 36.189 16.7461 36.4507 16.9783C36.5444 17.0621 36.6352 17.1524 36.7242 17.245C36.7517 17.2732 36.7804 17.2984 36.8079 17.3283C38.6021 19.2664 39.5109 23.0384 39.5109 28.5551C39.5109 33.6022 38.7233 37.1784 37.1686 39.2133C37.1358 39.2555 37.1013 39.2937 37.0679 39.3341" fill="white"></path><path d="M34.123 36.4397H34.1213C33.6669 36.4397 33.25 36.173 33.0585 35.7603C32.46 34.4675 32.1432 32.0058 32.1432 28.6407C32.1432 24.1922 32.6293 22.091 33.0374 21.112C33.2207 20.674 33.6446 20.3909 34.1189 20.3909C34.5933 20.3909 35.0172 20.674 35.2005 21.112C35.6086 22.091 36.0946 24.1916 36.0946 28.6407C36.0946 31.9988 35.7802 34.4593 35.1864 35.7556C34.9967 36.1706 34.5792 36.4386 34.1236 36.4397H34.123ZM34.1189 21.3969C34.051 21.3969 33.9907 21.4373 33.9649 21.5001C33.5919 22.3935 33.1475 24.3587 33.1475 28.6407C33.1475 32.9228 33.6628 34.6739 33.9696 35.3376C33.9972 35.3962 34.0569 35.4343 34.1213 35.4343H34.1225C34.1869 35.4343 34.2466 35.3956 34.2735 35.3364C34.5786 34.671 35.0904 32.9157 35.0904 28.6407C35.0904 24.3657 34.646 22.3935 34.273 21.5001C34.2472 21.4373 34.1869 21.3969 34.1189 21.3969Z" fill="white"></path></svg>